<?xml version="1.0" encoding="UTF-8"?>
<svg id="logo2" xmlns="http://www.w3.org/2000/svg" viewBox="0 0 39.53 27.7">
  <defs>
    <style>
      .cls-1 {
        fill: #a97eb6;
      }

      .cls-2 {
        fill: #1d1d1b;
      }
    </style>
  </defs>
  <g id="logo">
    <g>
      <path class="cls-1" d="m19.77,2l-9.38,6.66L1,2v23.73s15.69-11.51,37.53,0V1.98l-8.83,6.49-9.94-6.47Z"/>
      <path class="cls-2" d="m0,27.7V.06s10.38,7.37,10.38,7.37L19.74.79l9.93,6.46L39.53,0v27.39l-1.47-.77c-10.97-5.78-20.29-5.5-26.18-4.24-6.4,1.36-10.25,4.14-10.29,4.17L0,27.7Zm19.18-8.04c5.32,0,11.54,1.13,18.35,4.45V3.95l-7.79,5.73-9.95-6.48-9.41,6.68L2,3.94v20.01c2.74-1.52,8.86-4.29,17.18-4.29Z"/>
    </g>
    <g>
      <polyline class="cls-1" points="1 2 19.77 15.82 19.77 15.17 19.77 2.22 19.77 15.79"/>
      <polygon class="cls-2" points="20.77 17.8 .41 2.81 1.59 1.2 18.77 13.84 18.77 2.22 20.77 2.22 20.77 17.8"/>
    </g>
    <g>
      <line class="cls-1" x1="1" y1="14.97" x2="9.88" y2="21.44"/>
      <rect class="cls-2" x="4.44" y="12.72" width="2" height="10.98" transform="translate(-12.48 11.88) rotate(-53.92)"/>
    </g>
    <g>
      <line class="cls-1" x1="19.77" y1="2.22" x2="38.22" y2="14.76"/>
      <rect class="cls-2" x="27.99" y="-2.67" width="2" height="22.31" transform="translate(5.68 27.7) rotate(-55.81)"/>
    </g>
  </g>
</svg>